<svg xmlns="http://www.w3.org/2000/svg" width="444.84" height="142.5" viewBox="0 0 444.84 142.5"><path d="M94.09,40A40,40,0,0,1,60.75,79.44l-.31.06c-1,.22-4.61,1.1-6.35,3.73h0l-.22.23-26.47,29L0,142.5V6.47A6.47,6.47,0,0,1,6.47,0H54.09A40,40,0,0,1,94.09,40Z" style="fill:#0c0cf9"/><polygon points="54.08 83.24 54.08 142.5 27.39 112.48 53.86 83.47 54.08 83.24" style="fill:#1322be"/><polyline points="368.86 29.93 368.86 84.28 412.62 84" style="fill:none;stroke:#f15a24;stroke-miterlimit:10;stroke-width:12.5px"/><circle cx="413.79" cy="59.23" r="24.8" style="fill:none;stroke:#000050;stroke-miterlimit:10;stroke-width:12.5px"/><circle cx="142.31" cy="59.15" r="24.8" style="fill:none;stroke:#000050;stroke-miterlimit:10;stroke-width:12.5px"/><path d="M186.4,46.9a24.79,24.79,0,0,0,31.26,35.18" style="fill:none;stroke:#000050;stroke-miterlimit:10;stroke-width:12.5px"/><path d="M232,53.49a24.79,24.79,0,1,0-48.16,11.8" style="fill:none;stroke:#000050;stroke-miterlimit:10;stroke-width:12.5px"/><path d="M157.33,78.49s39-15.9,77.88-31.39" style="fill:none;stroke:#000050;stroke-miterlimit:10;stroke-width:11px"/><path d="M216.66,82.47c6.58-2.59,20-8.76,33.4-14.49" style="fill:none;stroke:#000050;stroke-miterlimit:10;stroke-width:12.5px"/><path d="M292.26,73.53c4.79-1.88,13.21-5.67,22.61-9.79" style="fill:none;stroke:#000050;stroke-miterlimit:10;stroke-width:12.5px"/><path d="M297.51,98.07a24.8,24.8,0,0,1-43.75,16" style="fill:none;stroke:#000050;stroke-miterlimit:10;stroke-width:12.5px"/><circle cx="272.71" cy="58.91" r="24.8" style="fill:none;stroke:#000050;stroke-miterlimit:10;stroke-width:12.5px"/><line x1="297.51" y1="58.91" x2="297.51" y2="98.93" style="fill:none;stroke:#000050;stroke-miterlimit:10;stroke-width:12.5px"/><circle cx="342.97" cy="59.23" r="24.8" style="fill:none;stroke:#f15a24;stroke-miterlimit:10;stroke-width:12.5px"/><polyline points="117.52 124.7 117.52 65.18 117.52 59.15" style="fill:none;stroke:#000050;stroke-miterlimit:10;stroke-width:12.5px"/></svg>
